<?xml version="1.0" encoding="UTF-8"?>
<svg xmlns="http://www.w3.org/2000/svg"
     viewBox="0 0 1254 1254"
     width="1254"
     height="1254"
     role="img"
     aria-labelledby="title desc"
     shape-rendering="geometricPrecision">
  <title id="title">Silueta de hoja de la marca</title>
  <desc id="desc">Símbolo formado por dos hojas curvas en color vino, sobre fondo transparente.</desc>
  <g id="silueta-hoja" fill="#843063" opacity="0.5">
    <path d="M 923 113 L 920 113 L 919 114 L 915 114 L 914 115 L 911 115 L 910 116 L 906 116 L 905 117 L 903 117 L 902 118 L 900 118 L 899 119 L 897 119 L 896 120 L 894 120 L 893 121 L 885 123 L 882 125 L 877 126 L 874 128 L 869 129 L 866 131 L 861 132 L 849 138 L 847 138 L 840 142 L 838 142 L 808 157 L 806 159 L 801 161 L 799 163 L 791 167 L 789 169 L 788 169 L 786 171 L 785 171 L 783 173 L 776 177 L 773 180 L 769 182 L 758 191 L 757 191 L 741 206 L 740 206 L 739 208 L 725 222 L 725 223 L 717 232 L 717 233 L 714 236 L 714 237 L 708 245 L 704 253 L 702 255 L 691 277 L 691 279 L 689 282 L 689 284 L 686 290 L 685 296 L 684 297 L 684 299 L 682 303 L 682 306 L 681 307 L 681 310 L 680 311 L 680 314 L 679 315 L 679 318 L 678 319 L 678 323 L 677 324 L 676 336 L 675 337 L 675 343 L 674 344 L 674 355 L 673 356 L 673 419 L 674 420 L 675 447 L 676 448 L 676 456 L 677 457 L 677 467 L 678 468 L 679 484 L 680 485 L 680 493 L 681 494 L 682 510 L 683 511 L 684 531 L 685 532 L 685 543 L 686 544 L 686 556 L 687 557 L 687 572 L 688 573 L 688 627 L 687 628 L 687 639 L 686 640 L 686 649 L 685 650 L 685 657 L 684 658 L 684 664 L 683 665 L 683 670 L 682 671 L 682 675 L 681 676 L 681 680 L 680 681 L 679 690 L 678 691 L 677 699 L 675 703 L 675 706 L 674 707 L 673 714 L 671 718 L 671 721 L 670 722 L 670 724 L 669 725 L 669 727 L 668 728 L 668 730 L 667 731 L 665 739 L 663 742 L 662 747 L 659 752 L 659 754 L 657 757 L 657 759 L 654 764 L 654 766 L 640 794 L 638 796 L 632 808 L 628 813 L 627 816 L 625 818 L 625 819 L 623 821 L 623 822 L 621 824 L 621 825 L 619 827 L 615 834 L 607 844 L 607 845 L 603 849 L 603 850 L 600 853 L 600 854 L 594 860 L 594 861 L 588 867 L 588 868 L 578 878 L 578 879 L 550 906 L 549 906 L 543 912 L 542 912 L 537 917 L 536 917 L 532 921 L 531 921 L 518 932 L 517 932 L 511 937 L 510 937 L 487 953 L 484 954 L 479 958 L 474 960 L 469 964 L 462 967 L 460 969 L 453 972 L 451 974 L 444 977 L 442 979 L 435 982 L 433 984 L 433 989 L 435 991 L 437 991 L 444 995 L 449 996 L 457 1000 L 459 1000 L 460 1001 L 462 1001 L 463 1002 L 465 1002 L 466 1003 L 468 1003 L 469 1004 L 471 1004 L 475 1006 L 478 1006 L 482 1008 L 485 1008 L 486 1009 L 489 1009 L 490 1010 L 493 1010 L 494 1011 L 498 1011 L 499 1012 L 502 1012 L 503 1013 L 507 1013 L 508 1014 L 520 1015 L 521 1016 L 528 1016 L 529 1017 L 540 1017 L 541 1018 L 578 1018 L 579 1017 L 589 1017 L 590 1016 L 598 1016 L 599 1015 L 612 1014 L 613 1013 L 623 1012 L 624 1011 L 628 1011 L 629 1010 L 632 1010 L 633 1009 L 640 1008 L 644 1006 L 651 1005 L 652 1004 L 654 1004 L 655 1003 L 657 1003 L 661 1001 L 664 1001 L 665 1000 L 667 1000 L 668 999 L 676 997 L 679 995 L 684 994 L 687 992 L 689 992 L 692 990 L 694 990 L 699 987 L 701 987 L 704 985 L 706 985 L 728 974 L 730 972 L 737 969 L 739 967 L 742 966 L 744 964 L 752 960 L 754 958 L 755 958 L 757 956 L 758 956 L 760 954 L 761 954 L 763 952 L 770 948 L 780 940 L 781 940 L 785 936 L 786 936 L 795 928 L 796 928 L 801 923 L 802 923 L 810 915 L 811 915 L 811 914 L 813 913 L 840 886 L 840 885 L 859 864 L 859 863 L 866 855 L 866 854 L 878 839 L 880 835 L 883 832 L 883 831 L 897 811 L 898 808 L 902 803 L 903 800 L 908 793 L 910 788 L 912 786 L 915 779 L 917 777 L 936 739 L 936 737 L 939 732 L 939 730 L 942 725 L 942 723 L 948 711 L 948 709 L 951 703 L 952 698 L 954 695 L 954 693 L 955 692 L 957 684 L 959 681 L 959 679 L 961 675 L 961 672 L 962 671 L 962 669 L 963 668 L 963 666 L 964 665 L 964 663 L 966 659 L 966 656 L 967 655 L 967 653 L 969 649 L 969 646 L 970 645 L 971 639 L 972 638 L 972 635 L 974 631 L 974 627 L 975 626 L 975 623 L 976 622 L 976 619 L 977 618 L 977 615 L 978 614 L 978 610 L 979 609 L 979 606 L 980 605 L 980 601 L 981 600 L 981 596 L 982 595 L 982 591 L 983 590 L 983 585 L 984 584 L 984 579 L 985 578 L 985 573 L 986 572 L 986 568 L 987 567 L 987 561 L 988 560 L 988 554 L 989 553 L 989 545 L 990 544 L 990 535 L 991 534 L 991 524 L 992 523 L 992 511 L 993 510 L 993 435 L 992 434 L 992 416 L 991 415 L 991 407 L 990 406 L 990 396 L 989 395 L 988 378 L 987 377 L 987 370 L 986 369 L 986 364 L 985 363 L 984 351 L 983 350 L 983 346 L 982 345 L 982 340 L 981 339 L 981 335 L 980 334 L 980 330 L 979 329 L 979 325 L 978 324 L 978 320 L 977 319 L 976 310 L 975 309 L 975 306 L 974 305 L 974 302 L 973 301 L 973 297 L 972 296 L 972 293 L 971 292 L 971 289 L 970 288 L 970 285 L 969 284 L 969 281 L 968 280 L 968 277 L 967 276 L 967 273 L 966 272 L 966 269 L 965 268 L 965 265 L 964 264 L 964 261 L 963 260 L 963 257 L 962 256 L 962 253 L 961 252 L 960 245 L 958 241 L 958 238 L 957 237 L 957 234 L 956 233 L 956 230 L 955 229 L 955 226 L 954 225 L 954 222 L 953 221 L 952 214 L 950 210 L 950 207 L 949 206 L 949 203 L 947 199 L 947 196 L 946 195 L 946 192 L 945 191 L 945 188 L 944 187 L 943 180 L 941 176 L 941 173 L 940 172 L 940 169 L 939 168 L 939 165 L 938 164 L 937 157 L 935 153 L 935 150 L 934 149 L 934 146 L 933 145 L 933 142 L 932 141 L 932 138 L 931 137 L 931 134 L 930 133 L 930 130 L 929 129 L 928 122 L 927 121 L 926 115 Z"/>
    <path d="M 722 141 L 716 141 L 715 142 L 710 142 L 709 143 L 700 144 L 699 145 L 696 145 L 695 146 L 692 146 L 691 147 L 688 147 L 687 148 L 684 148 L 683 149 L 680 149 L 679 150 L 675 150 L 674 151 L 668 152 L 664 154 L 661 154 L 657 156 L 654 156 L 653 157 L 651 157 L 647 159 L 644 159 L 643 160 L 641 160 L 640 161 L 638 161 L 637 162 L 635 162 L 634 163 L 632 163 L 631 164 L 629 164 L 628 165 L 620 167 L 617 169 L 612 170 L 609 172 L 604 173 L 601 175 L 596 176 L 593 178 L 591 178 L 588 180 L 586 180 L 583 182 L 581 182 L 567 189 L 565 189 L 554 195 L 552 195 L 518 212 L 516 214 L 509 217 L 507 219 L 500 222 L 498 224 L 495 225 L 493 227 L 485 231 L 483 233 L 477 236 L 475 238 L 474 238 L 472 240 L 471 240 L 469 242 L 468 242 L 466 244 L 465 244 L 463 246 L 462 246 L 460 248 L 453 252 L 450 255 L 446 257 L 443 260 L 442 260 L 439 263 L 438 263 L 435 266 L 434 266 L 431 269 L 430 269 L 426 273 L 425 273 L 422 276 L 421 276 L 416 281 L 415 281 L 400 295 L 399 295 L 386 308 L 385 308 L 385 309 L 383 310 L 369 324 L 369 325 L 356 338 L 356 339 L 344 352 L 344 353 L 335 363 L 335 364 L 332 367 L 332 368 L 328 372 L 328 373 L 322 380 L 320 384 L 312 394 L 309 400 L 303 408 L 302 411 L 300 413 L 299 416 L 294 423 L 289 434 L 287 436 L 279 452 L 279 454 L 273 465 L 273 467 L 271 470 L 270 475 L 266 483 L 266 485 L 265 486 L 265 488 L 264 489 L 264 491 L 263 492 L 263 494 L 262 495 L 262 497 L 260 501 L 260 504 L 259 505 L 259 507 L 257 511 L 257 514 L 256 515 L 256 518 L 255 519 L 255 522 L 254 523 L 254 526 L 253 527 L 253 530 L 252 531 L 252 534 L 251 535 L 251 539 L 250 540 L 250 544 L 249 545 L 248 554 L 247 555 L 247 560 L 246 561 L 246 568 L 245 569 L 245 575 L 244 576 L 244 583 L 243 584 L 243 594 L 242 595 L 242 608 L 241 609 L 241 668 L 242 669 L 242 681 L 243 682 L 243 690 L 244 691 L 244 698 L 245 699 L 245 706 L 246 707 L 246 712 L 247 713 L 248 724 L 249 725 L 249 729 L 250 730 L 250 733 L 251 734 L 251 738 L 252 739 L 253 747 L 255 751 L 256 758 L 258 762 L 258 765 L 259 766 L 259 768 L 260 769 L 260 771 L 261 772 L 261 774 L 262 775 L 262 777 L 263 778 L 263 780 L 264 781 L 264 783 L 265 784 L 267 792 L 269 795 L 269 797 L 272 803 L 272 805 L 274 808 L 274 810 L 281 824 L 281 826 L 301 866 L 303 868 L 305 873 L 310 880 L 315 890 L 317 892 L 317 893 L 319 895 L 319 896 L 321 898 L 321 899 L 323 901 L 327 908 L 330 911 L 330 912 L 333 915 L 333 916 L 336 919 L 336 920 L 341 925 L 341 926 L 352 937 L 353 937 L 359 942 L 369 947 L 380 947 L 381 946 L 386 945 L 415 931 L 422 926 L 427 924 L 429 922 L 432 921 L 434 919 L 442 915 L 450 909 L 453 908 L 455 906 L 456 906 L 458 904 L 459 904 L 461 902 L 462 902 L 464 900 L 471 896 L 474 893 L 481 889 L 484 886 L 485 886 L 488 883 L 492 881 L 496 877 L 497 877 L 500 874 L 501 874 L 511 865 L 512 865 L 518 859 L 519 859 L 549 829 L 549 828 L 554 823 L 554 822 L 563 812 L 563 811 L 572 800 L 572 799 L 582 785 L 587 775 L 589 773 L 603 745 L 603 743 L 608 733 L 609 728 L 611 725 L 611 723 L 612 722 L 612 720 L 613 719 L 613 717 L 614 716 L 614 714 L 615 713 L 615 711 L 617 707 L 617 704 L 619 700 L 619 697 L 620 696 L 620 693 L 621 692 L 621 689 L 622 688 L 622 685 L 623 684 L 623 680 L 624 679 L 624 675 L 625 674 L 625 670 L 626 669 L 626 665 L 627 664 L 627 659 L 628 658 L 629 642 L 630 641 L 630 633 L 631 632 L 631 619 L 632 618 L 632 553 L 631 552 L 631 535 L 630 534 L 630 522 L 629 521 L 629 511 L 628 510 L 628 501 L 627 500 L 627 491 L 626 490 L 626 481 L 625 480 L 625 473 L 624 472 L 623 452 L 622 451 L 622 441 L 621 440 L 621 430 L 620 429 L 620 417 L 619 416 L 619 390 L 618 389 L 618 387 L 619 386 L 619 383 L 618 382 L 618 380 L 619 379 L 619 351 L 620 350 L 620 340 L 621 339 L 621 331 L 622 330 L 622 323 L 623 322 L 624 310 L 625 309 L 625 306 L 626 305 L 626 301 L 627 300 L 627 296 L 628 295 L 629 288 L 631 284 L 631 281 L 632 280 L 632 278 L 633 277 L 633 275 L 634 274 L 636 266 L 638 263 L 639 258 L 643 251 L 643 249 L 648 239 L 650 237 L 653 230 L 655 228 L 656 225 L 660 220 L 661 217 L 663 215 L 665 211 L 668 208 L 668 207 L 671 204 L 671 203 L 674 200 L 674 199 L 684 188 L 684 187 L 724 147 L 724 143 Z"/>
  </g>
</svg>
